# xmcd
#
# Track frame offsets:
#	150
#	13990
#	31882
#	44687
#	56566
#	68180
#	79201
#	96688
#	109249
#	124762
#	137337
#	153216
#	165263
#	175943
#	182635
#	192737
#
# Disc length: 2748 seconds
#
# Revision: 0
# Processed by: cddbd v1.5.1PL0 Copyright (c) Steve Scherf et al.
# Submitted via: dBpowerAMP V4.0
#
DISCID=df0aba10
DTITLE=Don Williams - The Country Collection (Live)
DYEAR=2001
DGENRE=Country
TTITLE0=You're My Best Friend
TTITLE1=Good Ole Boys Like Me
TTITLE2=Amanda
TTITLE3=Tulsa Time
TTITLE4=Follow Me Back To Louisville
TTITLE5=Spend Some Time With Me
TTITLE6=I Believe In You
TTITLE7=There's Never Been A Time
TTITLE8=Tears
TTITLE9=Coming Apart
TTITLE10=I've Been Loved By The Best
TTITLE11=On Her Way To Being A Women
TTITLE12=Always Something There To Remind Me
TTITLE13=Lord I Hope This Day Is Good
TTITLE14=Take My Hand For A While
TTITLE15=Ruby Tuesday
EXTD=
EXTT0=
EXTT1=
EXTT2=
EXTT3=
EXTT4=
EXTT5=
EXTT6=
EXTT7=
EXTT8=
EXTT9=
EXTT10=
EXTT11=
EXTT12=
EXTT13=
EXTT14=
EXTT15=
PLAYORDER=
